<svg xmlns="http://www.w3.org/2000/svg" width="500" height="213" viewBox="0 0 500 213" version="1.1"><path d="M 9.750 13.742 C 7.138 13.944, 5 14.595, 5 15.189 C 5 17.461, 7.330 23.914, 8.001 23.499 C 8.388 23.260, 9.559 23.758, 10.603 24.606 C 12.439 26.099, 12.430 26.134, 10.325 25.687 C 8.995 25.405, 8.284 25.668, 8.496 26.363 C 8.687 26.988, 9.953 31.100, 11.310 35.500 C 15.016 47.519, 17.772 57.786, 19.145 64.693 C 19.822 68.099, 20.686 70.694, 21.064 70.461 C 21.442 70.227, 23.802 73.515, 26.309 77.768 C 28.816 82.021, 32.052 86.850, 33.500 88.500 L 36.133 91.500 35.529 88.678 C 33.921 81.158, 32.900 68.350, 32.792 54.343 C 32.698 42.129, 32.974 38.597, 34.110 37.461 C 35.826 35.745, 44.107 33.745, 49 33.865 C 50.925 33.912, 59.250 34.082, 67.500 34.242 C 81.674 34.517, 82.808 34.689, 88.101 37.356 C 101.368 44.042, 108.304 52.181, 111.548 64.870 C 114.088 74.803, 111.710 81.562, 102.717 89.967 L 99.519 92.955 104.403 97.728 C 118.564 111.564, 118.971 136.933, 105.228 149.031 C 98.695 154.781, 95.588 156.029, 85.066 157.126 C 79.877 157.667, 75.264 158.337, 74.816 158.614 C 72.796 159.862, 74.306 161.789, 77.750 162.358 C 83.090 163.241, 88.207 163.144, 87.606 162.172 C 87.324 161.716, 89.435 161.480, 92.297 161.647 C 107.380 162.528, 151 162.651, 151 161.812 C 151 161.293, 150.514 159.960, 149.919 158.849 C 147.941 155.153, 149.744 155.824, 152.643 159.862 C 154.458 162.392, 156.467 163.985, 158.152 164.234 L 160.804 164.625 157.524 155.562 C 153.426 144.239, 147.994 129.760, 144.221 120.103 L 141.330 112.705 141.799 133.853 L 142.267 155 138.884 155.089 C 133.251 155.237, 126.724 154.861, 122.509 154.146 L 118.518 153.469 118.389 98.330 L 118.260 43.191 124.380 41.406 C 128.847 40.104, 134.146 39.605, 144 39.561 C 167.313 39.456, 176.879 44.142, 184.393 59.349 C 190.634 71.980, 190.160 83.958, 183.028 93.802 C 180.681 97.043, 174.312 102.109, 168.196 105.601 C 167.876 105.783, 172.658 119.689, 177.962 134 C 179.695 138.675, 183.294 146.593, 185.961 151.596 C 188.841 157, 190.497 161.195, 190.041 161.933 C 189.473 162.853, 186.253 163.053, 177.637 162.704 C 171.215 162.445, 166 162.629, 166 163.117 C 166 163.603, 166.702 164, 167.559 164 C 168.416 164, 168.875 164.393, 168.578 164.874 C 168.281 165.354, 170.392 166.051, 173.269 166.421 C 181.580 167.492, 200.687 171.931, 210.603 175.095 C 218.646 177.662, 221.151 177.998, 232.103 177.985 C 240.477 177.974, 244.013 177.655, 243 177 C 242.175 176.467, 241.950 176.016, 242.500 175.997 C 243.050 175.979, 241.053 174.615, 238.061 172.966 C 235.070 171.317, 231.920 169.361, 231.061 168.618 C 230.203 167.875, 227.178 167.009, 224.340 166.692 C 210.494 165.146, 196.539 153.099, 191.891 138.680 C 189.765 132.086, 189.580 129.787, 189.622 110.500 C 189.663 91.121, 189.912 88.227, 192.852 73 C 194.603 63.925, 196.599 54.025, 197.287 51 L 198.538 45.500 203.519 45.233 C 206.259 45.086, 211.425 45.765, 215 46.742 C 220.989 48.380, 221.527 48.754, 221.840 51.499 C 222.026 53.138, 221.413 59.869, 220.476 66.456 C 219.539 73.044, 219.026 80.574, 219.336 83.189 C 219.646 85.804, 219.522 88.177, 219.061 88.463 C 218.599 88.748, 217.900 94.345, 217.506 100.902 C 216.306 120.874, 219.511 132.250, 226.339 132.250 C 230.485 132.250, 232.781 129.422, 235.402 121.088 C 238.912 109.927, 239.978 101.130, 239.942 83.620 C 239.924 75.004, 240.156 67.556, 240.458 67.068 C 240.760 66.579, 241.234 63.796, 241.511 60.882 C 241.789 57.968, 242.350 55.269, 242.758 54.883 C 243.401 54.274, 257.382 55.417, 263.669 56.592 C 267.148 57.242, 268.033 63.923, 267.496 85.500 C 266.920 108.688, 266.523 112.541, 263.274 126.500 C 260.722 137.464, 255.991 149.395, 251.941 155.083 C 249.067 159.119, 239.358 166.179, 235.636 166.941 C 232.719 167.537, 232.853 167.675, 239.980 171.420 C 246.705 174.954, 248.450 175.397, 260.416 176.610 C 279.070 178.501, 297.006 178.260, 296.998 176.119 C 296.996 175.779, 294.497 174.194, 291.443 172.599 C 277.689 165.412, 269.026 147.416, 269.010 126 C 268.995 104.288, 276.106 81.415, 286.731 69.002 C 290.683 64.384, 299.217 59.699, 307.703 57.489 C 316.639 55.162, 320.853 55.561, 328.679 59.476 C 340.439 65.359, 344.249 73.385, 344.190 92.147 C 344.159 101.838, 343.817 103.025, 341.249 102.357 C 340.287 102.107, 336.125 102.317, 332 102.823 C 327.784 103.341, 323.773 103.368, 322.840 102.885 C 321.927 102.413, 320.888 100.295, 320.530 98.179 C 319.467 91.884, 316.561 88, 312.916 88 C 308.409 88, 303.322 90.738, 301.107 94.356 C 300.049 96.085, 298.188 102.225, 296.973 108 C 294.474 119.868, 294.609 134.734, 297.272 141.109 C 299.435 146.286, 303.684 149.313, 307.843 148.638 C 312.221 147.928, 317.375 143.923, 319.019 139.954 C 320.316 136.824, 320.392 136.795, 325.416 137.515 C 328.212 137.915, 333.200 138.526, 336.500 138.872 L 342.500 139.500 342.389 143.212 C 342.248 147.946, 333.945 164.839, 329.736 168.954 C 328.016 170.635, 324.599 172.984, 322.142 174.173 C 317.841 176.255, 317.765 176.369, 320.085 177.227 C 321.411 177.718, 330.372 178.546, 339.998 179.068 C 349.624 179.589, 367.374 180.688, 379.442 181.508 C 405.642 183.290, 403.275 183.255, 402.405 181.845 C 401.962 181.129, 402.130 180.962, 402.849 181.407 C 404.183 182.231, 419.090 176.955, 418.433 175.891 C 418.193 175.504, 418.968 175.440, 420.155 175.751 C 421.762 176.171, 422.106 175.980, 421.502 175.003 C 420.978 174.156, 421.082 173.932, 421.794 174.373 C 423.115 175.189, 432 173.101, 432 171.975 C 432 171.542, 432.970 171.441, 434.156 171.751 C 435.478 172.097, 436.070 171.923, 435.687 171.302 C 435.301 170.678, 436.105 170.456, 437.780 170.723 C 439.672 171.024, 440.094 170.870, 439.165 170.217 C 438.140 169.495, 438.371 169.133, 440.165 168.652 C 443.534 167.751, 445.969 168.049, 443 169 C 441.041 169.627, 440.933 169.797, 442.500 169.782 C 443.600 169.772, 445.850 169.420, 447.500 169 C 449.661 168.450, 449.940 168.179, 448.500 168.032 C 446.992 167.878, 447.232 167.610, 449.480 166.939 C 451.119 166.450, 454.149 166.320, 456.213 166.650 C 459.130 167.116, 460.106 166.888, 460.590 165.625 C 461.328 163.702, 463.621 163.473, 464.338 165.250 C 464.615 165.938, 464.909 164.925, 464.991 163 C 465.119 160.007, 465.278 159.790, 466.091 161.500 C 466.919 163.243, 466.976 163.179, 466.534 161 C 466.255 159.625, 465.976 156.250, 465.914 153.500 C 465.823 149.488, 465.642 148.994, 465 151 C 464.425 152.796, 464.199 151.669, 464.199 147 C 464.199 143.290, 464.479 141.494, 464.850 142.815 C 465.207 144.088, 465.500 139.069, 465.500 131.662 C 465.500 124.254, 465.162 118.401, 464.750 118.655 C 464.337 118.910, 464.032 116.504, 464.070 113.309 C 464.121 109.139, 464.383 108.064, 465 109.500 C 465.789 111.336, 465.867 111.295, 465.947 109 C 465.995 107.625, 466.482 102.256, 467.028 97.070 C 467.574 91.883, 467.729 85.439, 467.373 82.751 L 466.724 77.863 463.294 83.949 C 459.891 89.988, 457.111 91.490, 459.100 86.215 C 461.025 81.108, 469.189 67.999, 470.095 68.559 C 470.593 68.866, 471 67.996, 471 66.624 C 471 65.253, 471.686 60.872, 472.523 56.889 C 473.361 52.906, 473.699 49.305, 473.273 48.887 C 472.848 48.469, 466.425 48.559, 459 49.087 C 443.200 50.210, 374.220 50.451, 356.553 49.444 L 344.367 48.750 340.615 53.973 C 336.136 60.207, 334.738 59.952, 338.314 53.553 L 340.858 49.002 338.370 48.378 C 337.001 48.035, 331.917 48.262, 327.072 48.883 C 315.991 50.304, 277.651 50.407, 264.805 49.050 C 252.929 47.796, 220.957 42.313, 220.113 41.386 C 219.776 41.016, 221.075 40.977, 223 41.301 C 225.309 41.688, 225.819 41.607, 224.500 41.061 C 221.215 39.701, 201.053 36.277, 201.607 37.173 C 202.301 38.295, 202.716 38.339, 184.332 35.369 C 175.374 33.921, 168.293 32.336, 168.596 31.845 C 168.914 31.330, 167.320 31.280, 164.824 31.726 C 162.446 32.152, 146.775 32.497, 130 32.493 C 106.409 32.487, 96.328 32.075, 85.500 30.673 C 63.446 27.819, 46.643 24.221, 31.500 19.108 C 23.800 16.509, 16.825 14.155, 16 13.878 C 15.175 13.601, 12.363 13.540, 9.750 13.742 M 412.647 59.250 C 409.644 63.226, 400.075 78.942, 397.121 84.750 C 395.932 87.088, 394.622 89, 394.209 89 C 393.796 89, 390.815 84.526, 387.583 79.057 C 384.352 73.588, 379.862 67.048, 377.604 64.522 L 373.500 59.930 368.500 61.847 C 365.750 62.901, 360.217 64.342, 356.205 65.050 C 352.193 65.757, 348.689 66.694, 348.419 67.131 C 347.714 68.272, 351.971 76.313, 359.287 87.660 C 362.777 93.072, 368.482 102.900, 371.966 109.500 C 379.237 123.276, 378.893 120.726, 377.650 151.629 C 377.064 166.200, 377.127 172.960, 377.852 173.408 C 378.430 173.766, 384.212 175.125, 390.702 176.429 C 399.589 178.215, 402.782 178.516, 403.645 177.650 C 404.380 176.912, 404.999 169.693, 405.372 157.500 C 405.692 147.050, 406.240 134.225, 406.590 129 L 407.227 119.500 417.429 104 C 423.041 95.475, 429.142 85.835, 430.988 82.578 C 432.834 79.321, 436.326 74.222, 438.748 71.248 C 441.171 68.274, 442.931 65.261, 442.659 64.553 C 442.106 63.112, 421.161 56, 417.470 56 C 415.968 56, 414.204 57.189, 412.647 59.250 M 65.250 59.706 C 63.117 60.117, 63 60.603, 63 69.070 L 63 78 69.532 78 C 79.800 78, 85.696 74.577, 86.171 68.340 C 86.518 63.789, 83.846 60.401, 79.320 59.653 C 75.228 58.977, 68.911 59.001, 65.250 59.706 M 145.711 62.658 C 145.404 63.156, 144.844 67.711, 144.467 72.781 L 143.783 82 148.756 82 C 154.317 82, 158.025 79.786, 160.509 74.982 C 162.397 71.332, 161.442 66.336, 158.488 64.400 C 155.812 62.647, 146.503 61.378, 145.711 62.658 M 23.361 85 C 23.701 88.575, 24.711 97.125, 25.606 104 C 26.718 112.535, 27.276 125.063, 27.367 143.500 C 27.490 168.490, 27.629 170.490, 29.239 170.363 C 30.228 170.285, 30.697 170.682, 30.325 171.283 C 29.899 171.972, 30.337 172.077, 31.586 171.585 C 32.639 171.170, 38.343 169.824, 44.262 168.594 C 50.181 167.364, 54.755 166.088, 54.425 165.759 C 53.313 164.646, 58.472 162.100, 64.857 160.611 C 68.347 159.796, 71.458 158.876, 71.768 158.565 C 72.079 158.254, 69.006 158, 64.940 158 C 57.580 158, 42.523 155.430, 40.370 153.806 C 39.681 153.287, 39.196 149.159, 39.126 143.227 C 39.012 133.471, 38.133 113.986, 37.469 106.500 C 37.274 104.300, 37.089 101.129, 37.057 99.454 C 37.017 97.319, 35.181 94.027, 30.923 88.454 C 22.459 77.376, 22.644 77.461, 23.361 85 M 465.232 99 C 465.232 100.925, 465.438 101.713, 465.689 100.750 C 465.941 99.787, 465.941 98.213, 465.689 97.250 C 465.438 96.287, 465.232 97.075, 465.232 99 M 66.386 104.981 C 64.427 105.772, 64.341 106.225, 65.212 111.167 C 65.728 114.100, 66.470 119.515, 66.860 123.201 C 67.249 126.886, 67.888 130.221, 68.279 130.612 C 69.680 132.014, 80.393 128.594, 83.702 125.688 C 86.441 123.284, 87 122.087, 87 118.631 C 87 116.342, 86.178 112.936, 85.173 111.062 C 83.252 107.480, 77.927 103.972, 74.516 104.041 C 72.810 104.075, 73.037 104.544, 76 107.092 C 80.099 110.618, 77.020 109.913, 72.673 106.330 C 69.571 103.773, 69.443 103.746, 66.386 104.981 M 425.444 141.001 C 422.175 143.201, 417.137 146.571, 414.250 148.488 C 409.451 151.676, 407.619 154, 409.906 154 C 411.169 154, 424.661 144.732, 429.500 140.540 C 434.915 135.850, 432.728 136.098, 425.444 141.001" stroke="none" fill="#e2e1da" fill-rule="evenodd"/><path d="M 3 10.418 C 3 13.879, 4.001 14.501, 9.010 14.153 C 11.755 13.963, 14 13.506, 14 13.138 C 14 12.537, 5.123 9, 3.616 9 C 3.277 9, 3 9.638, 3 10.418 M 8 23.996 C 8 25.209, 10.805 26.529, 11.629 25.705 C 11.927 25.406, 11.233 24.660, 10.086 24.046 C 8.639 23.272, 8 23.257, 8 23.996 M 168.581 31.869 C 168.005 32.801, 200.880 38.453, 201.760 37.573 C 202.482 36.851, 201.117 36.430, 188.661 33.526 C 177.659 30.962, 169.555 30.293, 168.581 31.869 M 44.500 33.991 C 43.400 34.473, 40.858 35.135, 38.850 35.461 C 36.843 35.786, 34.633 36.738, 33.938 37.575 C 31.656 40.325, 32.758 75.719, 35.529 88.678 L 36.133 91.500 33.500 88.500 C 32.052 86.850, 28.816 82.021, 26.309 77.768 C 22.014 70.482, 18.924 68.039, 21.038 73.601 C 21.567 74.992, 22.007 77.338, 22.015 78.815 C 22.026 80.614, 22.303 81.071, 22.856 80.199 C 23.441 79.277, 25.400 81.155, 29.590 86.658 C 32.841 90.927, 35.828 94.943, 36.230 95.584 C 36.631 96.225, 37.212 102.094, 37.521 108.625 C 37.830 115.156, 38.279 121.850, 38.520 123.500 C 38.760 125.150, 39.011 132.444, 39.078 139.710 C 39.157 148.368, 39.595 153.219, 40.349 153.789 C 42.506 155.418, 57.525 158, 65.023 158.030 C 73.229 158.064, 72.839 158.966, 63.781 160.905 C 60.635 161.579, 57.035 163.031, 55.781 164.132 L 53.500 166.133 59 165.448 C 62.025 165.071, 67.515 164.463, 71.201 164.097 C 77.929 163.429, 81.654 162, 76.667 162 C 75.012 162, 74 161.453, 74 160.559 C 74 158.434, 74.746 158.202, 85.066 157.126 C 90.255 156.585, 95.903 155.432, 97.617 154.564 C 117.939 144.276, 121.502 114.435, 104.403 97.728 L 99.519 92.955 102.717 89.967 C 111.710 81.562, 114.088 74.803, 111.548 64.870 C 108.304 52.181, 101.368 44.042, 88.101 37.356 C 82.767 34.668, 81.762 34.521, 67 34.277 C 58.475 34.137, 50.375 33.817, 49 33.567 C 47.625 33.317, 45.600 33.508, 44.500 33.991 M 133.500 39.593 C 131.850 39.825, 127.746 40.721, 124.380 41.583 L 118.260 43.152 118.389 98.310 L 118.518 153.469 122.509 154.146 C 126.724 154.861, 133.251 155.237, 138.884 155.089 L 142.267 155 141.799 133.853 L 141.330 112.705 144.221 120.103 C 148.099 130.029, 153.536 144.528, 157.493 155.500 L 160.739 164.500 165.119 164.669 C 167.529 164.762, 168.713 164.617, 167.750 164.346 C 166.787 164.075, 166 163.489, 166 163.043 C 166 162.598, 171.237 162.445, 177.637 162.704 C 186.253 163.053, 189.473 162.853, 190.041 161.933 C 190.497 161.195, 188.841 157, 185.961 151.596 C 183.294 146.593, 179.695 138.675, 177.962 134 C 172.658 119.689, 167.876 105.783, 168.196 105.601 C 174.312 102.109, 180.681 97.043, 183.028 93.802 C 190.160 83.958, 190.634 71.980, 184.393 59.349 C 177.334 45.063, 168.087 40.085, 147.500 39.489 C 141.450 39.314, 135.150 39.361, 133.500 39.593 M 220.168 41.502 C 221.012 42.345, 253.764 47.884, 264.805 49.051 C 275.878 50.221, 317.997 50.218, 325.500 49.048 C 328.965 48.507, 324.668 48.223, 311.500 48.125 C 286.299 47.936, 263.436 46.481, 246.798 44.008 C 232.027 41.813, 219.280 40.613, 220.168 41.502 M 198.618 45.809 C 197.559 47.523, 190.861 82.926, 190.068 91 C 189.609 95.675, 189.379 106.946, 189.557 116.046 C 189.962 136.780, 191.604 142.706, 199.647 152.458 C 205.900 160.037, 215.702 165.704, 224.330 166.725 C 227.596 167.112, 230.841 168.321, 233.199 170.030 C 235.245 171.511, 238.281 173.288, 239.947 173.978 C 241.612 174.668, 242.749 175.597, 242.473 176.044 C 241.569 177.506, 245.793 178.120, 252.657 177.523 C 261.044 176.795, 262.154 176, 254.782 176 C 250.257 176, 247.686 175.224, 240.866 171.801 C 232.809 167.757, 232.613 167.578, 235.573 166.963 C 239.355 166.178, 249.053 159.139, 251.941 155.083 C 255.991 149.395, 260.722 137.464, 263.274 126.500 C 266.523 112.541, 266.920 108.688, 267.496 85.500 C 268.033 63.923, 267.148 57.242, 263.669 56.592 C 257.382 55.417, 243.401 54.274, 242.758 54.883 C 242.350 55.269, 241.789 57.968, 241.511 60.882 C 241.234 63.796, 240.760 66.579, 240.458 67.068 C 240.156 67.556, 239.924 75.004, 239.942 83.620 C 239.978 101.130, 238.912 109.927, 235.402 121.088 C 232.781 129.422, 230.485 132.250, 226.339 132.250 C 219.511 132.250, 216.306 120.874, 217.506 100.902 C 217.900 94.345, 218.599 88.748, 219.061 88.463 C 219.522 88.177, 219.646 85.804, 219.336 83.189 C 219.026 80.574, 219.539 73.044, 220.476 66.456 C 222.924 49.236, 222.832 48.871, 215.500 46.830 C 209.109 45.051, 199.448 44.467, 198.618 45.809 M 338.617 52.962 C 334.390 60.729, 335.786 61.078, 340.967 53.548 C 343.225 50.266, 343.625 49.070, 342.597 48.676 C 341.728 48.342, 340.286 49.896, 338.617 52.962 M 307.275 57.539 C 299.150 59.727, 290.572 64.513, 286.731 69.002 C 276.106 81.415, 268.995 104.288, 269.010 126 C 269.026 147.240, 277.542 165.120, 291.133 172.449 C 294.085 174.040, 296.819 175.824, 297.208 176.413 C 297.628 177.047, 302.717 177.585, 309.708 177.732 C 316.461 177.875, 320.677 177.633, 319.573 177.166 C 317.912 176.462, 318.264 176.051, 322.128 174.180 C 324.593 172.987, 328.016 170.635, 329.736 168.954 C 333.945 164.839, 342.248 147.946, 342.389 143.212 L 342.500 139.500 336.500 138.872 C 333.200 138.526, 328.212 137.915, 325.416 137.515 C 320.392 136.795, 320.316 136.824, 319.019 139.954 C 317.375 143.923, 312.221 147.928, 307.843 148.638 C 303.684 149.313, 299.435 146.286, 297.272 141.109 C 294.609 134.734, 294.474 119.868, 296.973 108 C 298.188 102.225, 300.049 96.085, 301.107 94.356 C 303.322 90.738, 308.409 88, 312.916 88 C 316.561 88, 319.467 91.884, 320.530 98.179 C 320.888 100.295, 321.927 102.413, 322.840 102.885 C 323.773 103.368, 327.784 103.341, 332 102.823 C 336.125 102.317, 340.287 102.107, 341.249 102.357 C 343.817 103.025, 344.159 101.838, 344.190 92.147 C 344.249 73.385, 340.439 65.359, 328.679 59.476 C 320.912 55.590, 316.120 55.157, 307.275 57.539 M 412.647 59.250 C 409.644 63.226, 400.075 78.942, 397.121 84.750 C 395.932 87.088, 394.622 89, 394.209 89 C 393.796 89, 390.815 84.526, 387.583 79.057 C 384.352 73.588, 379.862 67.048, 377.604 64.522 L 373.500 59.930 368.500 61.847 C 365.750 62.901, 360.217 64.342, 356.205 65.050 C 352.193 65.757, 348.689 66.694, 348.419 67.131 C 347.714 68.272, 351.971 76.313, 359.287 87.660 C 362.777 93.072, 368.482 102.900, 371.966 109.500 C 379.237 123.276, 378.893 120.726, 377.650 151.629 C 377.064 166.200, 377.127 172.960, 377.852 173.408 C 378.430 173.766, 384.212 175.125, 390.702 176.429 C 399.589 178.215, 402.782 178.516, 403.645 177.650 C 404.380 176.912, 404.999 169.693, 405.372 157.500 C 405.692 147.050, 406.240 134.225, 406.590 129 L 407.227 119.500 417.429 104 C 423.041 95.475, 429.142 85.835, 430.988 82.578 C 432.834 79.321, 436.326 74.222, 438.748 71.248 C 441.171 68.274, 442.931 65.261, 442.659 64.553 C 442.106 63.112, 421.161 56, 417.470 56 C 415.968 56, 414.204 57.189, 412.647 59.250 M 65.250 59.706 C 63.117 60.117, 63 60.603, 63 69.070 L 63 78 69.532 78 C 79.800 78, 85.696 74.577, 86.171 68.340 C 86.518 63.789, 83.846 60.401, 79.320 59.653 C 75.228 58.977, 68.911 59.001, 65.250 59.706 M 145.711 62.658 C 145.404 63.156, 144.844 67.711, 144.467 72.781 L 143.783 82 148.756 82 C 154.317 82, 158.025 79.786, 160.509 74.982 C 162.397 71.332, 161.442 66.336, 158.488 64.400 C 155.812 62.647, 146.503 61.378, 145.711 62.658 M 464.812 75.500 C 459.328 84.857, 457.719 88.708, 458.971 89.482 C 459.462 89.786, 461.463 87.214, 463.417 83.767 L 466.969 77.500 467.085 81 C 467.178 83.823, 467.477 83.243, 468.629 78 C 471.006 67.183, 470.052 66.558, 464.812 75.500 M 465.232 99 C 465.232 100.925, 465.438 101.713, 465.689 100.750 C 465.941 99.787, 465.941 98.213, 465.689 97.250 C 465.438 96.287, 465.232 97.075, 465.232 99 M 66.386 104.981 C 64.427 105.772, 64.341 106.225, 65.212 111.167 C 65.728 114.100, 66.470 119.515, 66.860 123.201 C 67.249 126.886, 67.888 130.221, 68.279 130.612 C 69.680 132.014, 80.393 128.594, 83.702 125.688 C 86.441 123.284, 87 122.087, 87 118.631 C 87 116.342, 86.178 112.936, 85.173 111.062 C 83.252 107.480, 77.927 103.972, 74.516 104.041 C 72.810 104.075, 73.037 104.544, 76 107.092 C 80.099 110.618, 77.020 109.913, 72.673 106.330 C 69.571 103.773, 69.443 103.746, 66.386 104.981 M 464.063 113.417 C 464.029 116.671, 464.308 119.025, 464.685 118.649 C 465.686 117.647, 465.835 111.819, 464.918 109.500 C 464.387 108.157, 464.106 109.443, 464.063 113.417 M 425.444 141.001 C 422.175 143.201, 417.137 146.571, 414.250 148.488 C 409.451 151.676, 407.619 154, 409.906 154 C 411.169 154, 424.661 144.732, 429.500 140.540 C 434.915 135.850, 432.728 136.098, 425.444 141.001 M 464.086 147.083 C 464.153 152.103, 464.352 152.902, 464.999 150.752 C 465.756 148.238, 465.378 142.081, 464.406 141.083 C 464.183 140.854, 464.039 143.554, 464.086 147.083 M 149.538 157.500 C 149.933 158.600, 150.477 160.512, 150.745 161.750 C 151.041 163.114, 151.975 164, 153.117 164 C 155.686 164, 155.461 163.089, 151.882 159 C 149.972 156.818, 149.089 156.253, 149.538 157.500 M 465.063 162.950 C 465.020 165.318, 465.323 166.077, 466.030 165.370 C 466.713 164.687, 466.734 163.522, 466.094 161.920 C 465.185 159.646, 465.123 159.708, 465.063 162.950 M 461 165.583 C 461 166.454, 461.534 166.989, 462.188 166.771 C 464.042 166.153, 464.349 164, 462.583 164 C 461.712 164, 461 164.713, 461 165.583 M 449 167 C 447.020 167.634, 446.916 167.801, 448.500 167.801 C 449.600 167.801, 451.625 167.440, 453 167 C 454.980 166.366, 455.084 166.199, 453.500 166.199 C 452.400 166.199, 450.375 166.560, 449 167 M 439.500 169 C 436.952 170.095, 439.581 170.095, 443 169 C 445.010 168.356, 445.108 168.194, 443.500 168.170 C 442.400 168.154, 440.600 168.527, 439.500 169 M 26.368 171.214 C 26.100 171.646, 26.782 172, 27.882 172 C 28.982 172, 30.100 171.646, 30.368 171.214 C 30.635 170.782, 29.953 170.429, 28.853 170.429 C 27.753 170.429, 26.635 170.782, 26.368 171.214" stroke="none" fill="#595d87" fill-rule="evenodd"/></svg>